<?xml version="1.0"?>
<!--Icons from directory ""-->
<svg xmlns="http://www.w3.org/2000/svg" width="57" height="171" viewBox="0 0 57 171"><svg xmlns:xlink="http://www.w3.org/1999/xlink" id="email" xml:space="preserve" height="57" viewBox="0 0 56.69 56.69" width="57" version="1.1" y="0" x="0px" enable-background="new 0 0 56.69 56.69"><path d="m28.347 34.688c-0.941 0-1.772-0.332-3.543-1.19l-24.804-12.983v24.804c0 1.948 1.595 3.543 3.543 3.543h49.607c1.948 0 3.544-1.595 3.544-3.543v-24.804l-24.803 12.983c-1.772 0.858-2.603 1.19-3.544 1.19zm24.803-28.346h-49.607c-1.948 0-3.543 1.595-3.543 3.543v2.685l28.347 14.9 28.347-14.9v-2.685c0-1.948-1.595-3.543-3.544-3.543z" fill="#010101"/></svg><svg xmlns:xlink="http://www.w3.org/1999/xlink" id="facebook" xml:space="preserve" height="57" viewBox="0 0 56.69 56.69" width="57" version="1.1" y="57" x="0px" enable-background="new 0 0 56.69 56.69"><path d="m27.632 11.886c0-2.587 2.182-2.117 2.182-2.117h6.291v-9.736s0.529-0.069-9.799-0.069c-10.33 0-10.793 9.405-10.793 9.405v8.606h-5.891v10.526h5.892v27.805h12.119v-27.804h7.745l1.513-10.526h-9.257v-6.09z"/></svg><svg xmlns:xlink="http://www.w3.org/1999/xlink" id="twit" xml:space="preserve" height="57" viewBox="0 0 56.69 56.69" width="57" version="1.1" y="114" x="0px" enable-background="new 0 0 56.69 56.69"><path d="m50.881 16.455c0.021 0.497 0.034 1 0.034 1.503 0 15.348-11.682 33.04-33.043 33.04-6.556 0-12.661-1.924-17.801-5.214 0.91 0.105 1.832 0.158 2.773 0.158 5.439 0 10.449-1.856 14.42-4.972-5.081-0.093-9.373-3.446-10.849-8.062 0.709 0.136 1.436 0.207 2.187 0.207 1.059 0 2.084-0.141 3.059-0.405-5.312-1.069-9.316-5.76-9.316-11.39 0-0.048 0-0.097 0.002-0.147 1.566 0.873 3.356 1.397 5.259 1.456-3.117-2.086-5.167-5.64-5.167-9.666 0-2.131 0.574-4.125 1.576-5.84 5.727 7.026 14.286 11.646 23.935 12.13-0.198-0.846-0.3-1.736-0.3-2.646-0.001-6.409 5.2-11.607 11.612-11.607 3.34 0 6.357 1.411 8.476 3.667 2.645-0.521 5.132-1.493 7.375-2.819-0.866 2.71-2.709 4.986-5.106 6.422 2.35-0.281 4.586-0.903 6.668-1.828-1.558 2.329-3.525 4.377-5.794 6.013"/></svg></svg>
